# xmcd
#
# Track frame offsets:
#	150
#	12304
#	25376
#	38105
#	52822
#	67574
#	80365
#	90130
#	106976
#	118740
#	129251
#	142275
#	155949
#
# Disc length: 2275 seconds
#
# Revision: 0
# Processed by: cddbd v1.5.2PL0 Copyright (c) Steve Scherf et al.
# Submitted via: EZCDAudioConverter 2.2.2.1
#
DISCID=9f08e10d
DTITLE=Susanne Lana - Queen of the tears
DYEAR=2006
DGENRE=country
TTITLE0=Brass buckles
TTITLE1=Heartbroke
TTITLE2=He loves me all the way
TTITLE3=You and me
TTITLE4=Shadows from the lamp lights
TTITLE5=Time will prove I'm right
TTITLE6=That'll be the day
TTITLE7=Could I have this dance
TTITLE8=There's no use hanging on
TTITLE9=Burning 'old memories
TTITLE10=Crazy
TTITLE11=All I ever need is you
TTITLE12=Queen of the tears
EXTD=
EXTT0=
EXTT1=
EXTT2=
EXTT3=
EXTT4=
EXTT5=
EXTT6=
EXTT7=
EXTT8=
EXTT9=
EXTT10=
EXTT11=
EXTT12=
PLAYORDER=
